<svg width="367" height="149" viewBox="0 0 367 149" fill="none" xmlns="http://www.w3.org/2000/svg">
<path d="M26.9492 35.9102V38.0195C26.9492 39.2617 27.2539 40.2344 27.8633 40.9375C28.4961 41.6172 29.6328 41.957 31.2734 41.957H34.8594V55H0.441406V41.957C2.50391 41.957 3.98047 41.6875 4.87109 41.1484C5.76172 40.5859 6.20703 39.543 6.20703 38.0195V20.2305C6.20703 18.6836 5.76172 17.6406 4.87109 17.1016C3.98047 16.5391 2.50391 16.2578 0.441406 16.2578V3.21484H38.375C41.8438 3.21484 44.75 3.625 47.0938 4.44531C49.4375 5.26562 51.3125 6.41406 52.7188 7.89062C54.1484 9.34375 55.1562 11.1133 55.7422 13.1992C56.3516 15.2852 56.6562 17.582 56.6562 20.0898C56.6562 22.6211 56.3516 24.8594 55.7422 26.8047C55.1562 28.75 54.1484 30.4141 52.7188 31.7969C51.3125 33.1562 49.4375 34.1875 47.0938 34.8906C44.75 35.5703 41.8438 35.9102 38.375 35.9102H26.9492ZM26.9492 27.5781H30.7461C32.7148 27.5781 34.0742 27.0625 34.8242 26.0312C35.5742 25 35.9492 23.6406 35.9492 21.9531C35.9492 20.3594 35.5742 19.0117 34.8242 17.9102C34.0742 16.8086 32.7148 16.2578 30.7461 16.2578H26.9492V27.5781ZM97.0859 14.6758C100.18 14.6758 102.688 15.1328 104.609 16.0469C106.555 16.9609 108.066 18.1211 109.145 19.5273C110.246 20.9102 110.996 22.4219 111.395 24.0625C111.793 25.6797 111.992 27.2031 111.992 28.6328V38.5117C111.992 39.7539 112.203 40.6445 112.625 41.1836C113.07 41.6992 113.914 41.957 115.156 41.957H117.055V55H92.7266V32.5352C92.7266 31.6211 92.6094 30.8945 92.375 30.3555C92.1641 29.793 91.8828 29.3711 91.5312 29.0898C91.2031 28.7852 90.8281 28.5859 90.4062 28.4922C89.9844 28.3984 89.5742 28.3516 89.1758 28.3516C87.6523 28.3516 86.5156 28.7969 85.7656 29.6875C85.0156 30.5781 84.6406 31.8438 84.6406 33.4844V38.5117C84.6406 39.7539 84.8516 40.6445 85.2734 41.1836C85.7188 41.6992 86.5625 41.957 87.8047 41.957H90.4062V55H60.3125V41.957H62.3867C63.3477 41.957 64.0742 41.6523 64.5664 41.043C65.082 40.4102 65.3398 39.6602 65.3398 38.793L65.2695 20.2305C65.2695 18.8711 64.8359 17.875 63.9688 17.2422C63.125 16.5859 62.1406 16.2578 61.0156 16.2578H60.3125V3.21484H84.6406V16.2578C84.6406 16.7031 84.5 17.4766 84.2188 18.5781C83.9375 19.6797 83.4102 20.7812 82.6367 21.8828L83.3398 22.2344C84.6055 19.9375 86.3047 18.1094 88.4375 16.75C90.5703 15.3672 93.4531 14.6758 97.0859 14.6758ZM119.199 35.5586C119.199 32.1133 119.797 29.0898 120.992 26.4883C122.188 23.8867 123.887 21.7188 126.09 19.9844C128.316 18.2266 130.988 16.9023 134.105 16.0117C137.223 15.1211 140.703 14.6758 144.547 14.6758C148.391 14.6758 151.871 15.1211 154.988 16.0117C158.105 16.9023 160.766 18.2266 162.969 19.9844C165.172 21.7188 166.871 23.8867 168.066 26.4883C169.285 29.0898 169.895 32.1133 169.895 35.5586C169.895 38.957 169.285 41.9688 168.066 44.5938C166.871 47.2188 165.172 49.4219 162.969 51.2031C160.766 52.9609 158.105 54.2852 154.988 55.1758C151.871 56.0664 148.391 56.5117 144.547 56.5117C140.703 56.5117 137.223 56.0664 134.105 55.1758C130.988 54.2852 128.316 52.9609 126.09 51.2031C123.887 49.4219 122.188 47.2188 120.992 44.5938C119.797 41.9688 119.199 38.957 119.199 35.5586ZM139.203 35.5586C139.203 37.5273 139.285 39.2031 139.449 40.5859C139.637 41.9453 139.93 43.0469 140.328 43.8906C140.727 44.7109 141.266 45.3203 141.945 45.7188C142.625 46.0938 143.492 46.2812 144.547 46.2812C145.602 46.2812 146.457 46.0938 147.113 45.7188C147.793 45.3203 148.332 44.7109 148.73 43.8906C149.152 43.0469 149.445 41.9453 149.609 40.5859C149.773 39.2031 149.855 37.5273 149.855 35.5586C149.855 31.6211 149.48 28.8672 148.73 27.2969C148.004 25.7031 146.609 24.9062 144.547 24.9062C143.492 24.9062 142.625 25.0938 141.945 25.4688C141.266 25.8203 140.727 26.418 140.328 27.2617C139.93 28.082 139.637 29.1836 139.449 30.5664C139.285 31.9258 139.203 33.5898 139.203 35.5586ZM192.852 37.8086C192.945 41.3008 193.602 43.7148 194.82 45.0508C196.062 46.3633 197.832 47.0195 200.129 47.0195C200.902 47.0195 201.652 46.9141 202.379 46.7031C203.129 46.4688 203.82 46.1055 204.453 45.6133C205.086 45.0977 205.625 44.4297 206.07 43.6094C206.539 42.7656 206.844 41.7109 206.984 40.4453H219.781C219.312 43.4688 218.445 46 217.18 48.0391C215.938 50.0781 214.332 51.7305 212.363 52.9961C210.395 54.2383 208.098 55.1289 205.473 55.668C202.871 56.2305 199.965 56.5117 196.754 56.5117C193.449 56.5117 190.344 56.0898 187.438 55.2461C184.531 54.4023 181.977 53.125 179.773 51.4141C177.594 49.6797 175.883 47.5117 174.641 44.9102C173.398 42.2852 172.777 39.168 172.777 35.5586C172.777 32.1133 173.363 29.0898 174.535 26.4883C175.707 23.8867 177.348 21.7188 179.457 19.9844C181.59 18.2266 184.098 16.9023 186.98 16.0117C189.887 15.1211 193.074 14.6758 196.543 14.6758C200.809 14.6758 204.477 15.2383 207.547 16.3633C210.617 17.4883 213.125 19.0586 215.07 21.0742C217.016 23.0898 218.445 25.5156 219.359 28.3516C220.273 31.1875 220.707 34.3398 220.66 37.8086H192.852ZM198.055 24.168C196.414 24.168 195.195 24.7539 194.398 25.9258C193.625 27.0742 193.109 28.9844 192.852 31.6562H203.152C203.012 29.3594 202.52 27.543 201.676 26.207C200.832 24.8477 199.625 24.168 198.055 24.168ZM257.469 32.5352C257.469 31.6211 257.352 30.8945 257.117 30.3555C256.906 29.793 256.625 29.3711 256.273 29.0898C255.945 28.7852 255.57 28.5859 255.148 28.4922C254.727 28.3984 254.316 28.3516 253.918 28.3516C252.395 28.3516 251.258 28.7969 250.508 29.6875C249.758 30.5781 249.383 31.8438 249.383 33.4844V38.5117C249.383 39.7539 249.594 40.6445 250.016 41.1836C250.461 41.6992 251.305 41.957 252.547 41.957H254.445V55H225.055V41.957H227.129C228.09 41.957 228.816 41.6523 229.309 41.043C229.824 40.4102 230.082 39.6602 230.082 38.793V32.1133C230.082 31.0117 229.754 30.2734 229.098 29.8984C228.465 29.5 227.738 29.3008 226.918 29.3008H225.055V16.2578H245.938L245.199 25.9258H245.797C246.312 22.3164 247.895 19.5391 250.543 17.5938C253.191 15.6484 256.789 14.6758 261.336 14.6758C264.547 14.6758 267.16 15.1328 269.176 16.0469C271.191 16.9609 272.75 18.1211 273.852 19.5273C274.977 20.9102 275.738 22.4219 276.137 24.0625C276.535 25.6797 276.734 27.2031 276.734 28.6328V38.5117C276.734 39.7539 276.945 40.6445 277.367 41.1836C277.812 41.6992 278.656 41.957 279.898 41.957H281.797V55H257.469V32.5352ZM309.922 16.2578V38.1602C309.922 39.7305 310.309 40.7617 311.082 41.2539C311.855 41.7227 312.84 41.957 314.035 41.957H314.984V55H285.383V41.957H286.754C287.996 41.957 288.91 41.5703 289.496 40.7969C290.105 40 290.41 39.1445 290.41 38.2305V33.2734C290.41 31.9141 289.977 30.918 289.109 30.2852C288.266 29.6289 287.281 29.3008 286.156 29.3008H285.383V16.2578H309.922ZM289.848 7.60938C289.848 5.59375 290.609 3.87109 292.133 2.44141C293.68 1.01172 295.871 0.296875 298.707 0.296875C301.59 0.296875 303.805 1.01172 305.352 2.44141C306.922 3.87109 307.707 5.59375 307.707 7.60938C307.707 9.67188 306.922 11.418 305.352 12.8477C303.805 14.2539 301.59 14.957 298.707 14.957C295.871 14.957 293.68 14.2539 292.133 12.8477C290.609 11.418 289.848 9.67188 289.848 7.60938ZM346.871 32.3242L348.242 31.375C348.57 31.1406 348.98 30.8359 349.473 30.4609C349.988 30.0625 350.246 29.6758 350.246 29.3008C350.246 28.8086 349.859 28.5625 349.086 28.5625V16.2578H366.383V28.5625C365.75 28.5625 365.035 28.7148 364.238 29.0195C363.465 29.3008 362.68 29.6523 361.883 30.0742C361.086 30.4727 360.289 30.918 359.492 31.4102C358.695 31.8789 357.992 32.3242 357.383 32.7461L352.496 35.9805L357.734 39.3906C358.227 39.6719 358.742 40.0117 359.281 40.4102C359.844 40.7852 360.465 41.1367 361.145 41.4648C361.848 41.793 362.656 42.0859 363.57 42.3438C364.484 42.5781 365.539 42.6953 366.734 42.6953V55H336.852V42.6953C337.484 42.6953 338.012 42.5664 338.434 42.3086C338.879 42.0273 339.102 41.6758 339.102 41.2539C339.102 40.9023 338.938 40.5508 338.609 40.1992C338.305 39.8477 337.965 39.5547 337.59 39.3203L336.781 38.793L336.078 39.3203C335.586 39.6016 335.023 40.0117 334.391 40.5508C333.781 41.0664 333.477 41.5117 333.477 41.8867C333.477 42.4258 333.84 42.6953 334.566 42.6953V55H317.621V42.6953C318.16 42.6953 318.781 42.543 319.484 42.2383C320.211 41.9102 320.961 41.5352 321.734 41.1133C322.508 40.668 323.27 40.1992 324.02 39.707C324.793 39.1914 325.496 38.7227 326.129 38.3008L331.086 35.0664L326.34 31.9023C325.379 31.2227 324.16 30.4961 322.684 29.7227C321.23 28.9492 319.672 28.5625 318.008 28.5625V16.2578H346.801V28.5625C346.262 28.5625 345.793 28.6914 345.395 28.9492C345.02 29.1836 344.832 29.4883 344.832 29.8633C344.832 30.2617 344.961 30.6133 345.219 30.918C345.5 31.2227 345.875 31.5742 346.344 31.9727L346.871 32.3242ZM27.0898 93.8086C28.6602 93.8086 30.125 93.9375 31.4844 94.1953C32.8672 94.4531 34.1211 94.793 35.2461 95.2148C36.3711 95.6133 37.3438 96.0469 38.1641 96.5156C38.9844 96.9609 39.6523 97.3711 40.168 97.7461V95.2148H51.7695V114.375H39.4648C39.4648 112.805 39.2656 111.492 38.8672 110.438C38.4922 109.383 37.9766 108.527 37.3203 107.871C36.6875 107.215 35.9375 106.746 35.0703 106.465C34.2031 106.184 33.2656 106.043 32.2578 106.043C30.875 106.043 29.6914 106.312 28.707 106.852C27.7227 107.367 26.9141 108.211 26.2812 109.383C25.6719 110.555 25.2031 112.113 24.875 114.059C24.5703 116.004 24.418 118.371 24.418 121.16C24.418 123.996 24.582 126.375 24.9102 128.297C25.2617 130.195 25.7773 131.742 26.457 132.938C27.1602 134.109 28.0508 134.965 29.1289 135.504C30.207 136.02 31.4961 136.277 32.9961 136.277C34.0039 136.277 34.9766 136.09 35.9141 135.715C36.8516 135.316 37.6719 134.719 38.375 133.922C39.1016 133.125 39.6641 132.129 40.0625 130.934C40.4844 129.738 40.6953 128.297 40.6953 126.609H52.9297C52.9297 129.586 52.4609 132.398 51.5234 135.047C50.5859 137.695 49.1211 140.016 47.1289 142.008C45.1367 144 42.6055 145.582 39.5352 146.754C36.4648 147.926 32.8203 148.512 28.6016 148.512C24.8047 148.512 21.207 147.996 17.8086 146.965C14.4336 145.934 11.4805 144.316 8.94922 142.113C6.44141 139.91 4.44922 137.086 2.97266 133.641C1.51953 130.172 0.792969 126.012 0.792969 121.16C0.792969 116.309 1.53125 112.16 3.00781 108.715C4.50781 105.246 6.47656 102.41 8.91406 100.207C11.375 98.0039 14.1758 96.3867 17.3164 95.3555C20.457 94.3242 23.7148 93.8086 27.0898 93.8086ZM57.2539 127.559C57.2539 124.113 57.8516 121.09 59.0469 118.488C60.2422 115.887 61.9414 113.719 64.1445 111.984C66.3711 110.227 69.043 108.902 72.1602 108.012C75.2773 107.121 78.7578 106.676 82.6016 106.676C86.4453 106.676 89.9258 107.121 93.043 108.012C96.1602 108.902 98.8203 110.227 101.023 111.984C103.227 113.719 104.926 115.887 106.121 118.488C107.34 121.09 107.949 124.113 107.949 127.559C107.949 130.957 107.34 133.969 106.121 136.594C104.926 139.219 103.227 141.422 101.023 143.203C98.8203 144.961 96.1602 146.285 93.043 147.176C89.9258 148.066 86.4453 148.512 82.6016 148.512C78.7578 148.512 75.2773 148.066 72.1602 147.176C69.043 146.285 66.3711 144.961 64.1445 143.203C61.9414 141.422 60.2422 139.219 59.0469 136.594C57.8516 133.969 57.2539 130.957 57.2539 127.559ZM77.2578 127.559C77.2578 129.527 77.3398 131.203 77.5039 132.586C77.6914 133.945 77.9844 135.047 78.3828 135.891C78.7812 136.711 79.3203 137.32 80 137.719C80.6797 138.094 81.5469 138.281 82.6016 138.281C83.6562 138.281 84.5117 138.094 85.168 137.719C85.8477 137.32 86.3867 136.711 86.7852 135.891C87.207 135.047 87.5 133.945 87.6641 132.586C87.8281 131.203 87.9102 129.527 87.9102 127.559C87.9102 123.621 87.5352 120.867 86.7852 119.297C86.0586 117.703 84.6641 116.906 82.6016 116.906C81.5469 116.906 80.6797 117.094 80 117.469C79.3203 117.82 78.7812 118.418 78.3828 119.262C77.9844 120.082 77.6914 121.184 77.5039 122.566C77.3398 123.926 77.2578 125.59 77.2578 127.559ZM144.688 124.535C144.688 123.621 144.57 122.895 144.336 122.355C144.125 121.793 143.844 121.371 143.492 121.09C143.164 120.785 142.789 120.586 142.367 120.492C141.945 120.398 141.535 120.352 141.137 120.352C139.613 120.352 138.477 120.797 137.727 121.688C136.977 122.578 136.602 123.844 136.602 125.484V130.512C136.602 131.754 136.812 132.645 137.234 133.184C137.68 133.699 138.523 133.957 139.766 133.957H141.664V147H112.273V133.957H114.348C115.309 133.957 116.035 133.652 116.527 133.043C117.043 132.41 117.301 131.66 117.301 130.793V124.113C117.301 123.012 116.973 122.273 116.316 121.898C115.684 121.5 114.957 121.301 114.137 121.301H112.273V108.258H133.156L132.418 117.926H133.016C133.531 114.316 135.113 111.539 137.762 109.594C140.41 107.648 144.008 106.676 148.555 106.676C151.766 106.676 154.379 107.133 156.395 108.047C158.41 108.961 159.969 110.121 161.07 111.527C162.195 112.91 162.957 114.422 163.355 116.062C163.754 117.68 163.953 119.203 163.953 120.633V130.512C163.953 131.754 164.164 132.645 164.586 133.184C165.031 133.699 165.875 133.957 167.117 133.957H169.016V147H144.688V124.535ZM205.016 124.535C205.016 123.621 204.898 122.895 204.664 122.355C204.453 121.793 204.172 121.371 203.82 121.09C203.492 120.785 203.117 120.586 202.695 120.492C202.273 120.398 201.863 120.352 201.465 120.352C199.941 120.352 198.805 120.797 198.055 121.688C197.305 122.578 196.93 123.844 196.93 125.484V130.512C196.93 131.754 197.141 132.645 197.562 133.184C198.008 133.699 198.852 133.957 200.094 133.957H201.992V147H172.602V133.957H174.676C175.637 133.957 176.363 133.652 176.855 133.043C177.371 132.41 177.629 131.66 177.629 130.793V124.113C177.629 123.012 177.301 122.273 176.645 121.898C176.012 121.5 175.285 121.301 174.465 121.301H172.602V108.258H193.484L192.746 117.926H193.344C193.859 114.316 195.441 111.539 198.09 109.594C200.738 107.648 204.336 106.676 208.883 106.676C212.094 106.676 214.707 107.133 216.723 108.047C218.738 108.961 220.297 110.121 221.398 111.527C222.523 112.91 223.285 114.422 223.684 116.062C224.082 117.68 224.281 119.203 224.281 120.633V130.512C224.281 131.754 224.492 132.645 224.914 133.184C225.359 133.699 226.203 133.957 227.445 133.957H229.344V147H205.016V124.535ZM251.562 129.809C251.656 133.301 252.312 135.715 253.531 137.051C254.773 138.363 256.543 139.02 258.84 139.02C259.613 139.02 260.363 138.914 261.09 138.703C261.84 138.469 262.531 138.105 263.164 137.613C263.797 137.098 264.336 136.43 264.781 135.609C265.25 134.766 265.555 133.711 265.695 132.445H278.492C278.023 135.469 277.156 138 275.891 140.039C274.648 142.078 273.043 143.73 271.074 144.996C269.105 146.238 266.809 147.129 264.184 147.668C261.582 148.23 258.676 148.512 255.465 148.512C252.16 148.512 249.055 148.09 246.148 147.246C243.242 146.402 240.688 145.125 238.484 143.414C236.305 141.68 234.594 139.512 233.352 136.91C232.109 134.285 231.488 131.168 231.488 127.559C231.488 124.113 232.074 121.09 233.246 118.488C234.418 115.887 236.059 113.719 238.168 111.984C240.301 110.227 242.809 108.902 245.691 108.012C248.598 107.121 251.785 106.676 255.254 106.676C259.52 106.676 263.188 107.238 266.258 108.363C269.328 109.488 271.836 111.059 273.781 113.074C275.727 115.09 277.156 117.516 278.07 120.352C278.984 123.188 279.418 126.34 279.371 129.809H251.562ZM256.766 116.168C255.125 116.168 253.906 116.754 253.109 117.926C252.336 119.074 251.82 120.984 251.562 123.656H261.863C261.723 121.359 261.23 119.543 260.387 118.207C259.543 116.848 258.336 116.168 256.766 116.168ZM308.586 116.168C306.57 116.168 305.023 117.023 303.945 118.734C302.867 120.445 302.328 123.293 302.328 127.277C302.328 131.262 302.879 134.098 303.98 135.785C305.105 137.449 306.816 138.281 309.113 138.281C309.77 138.281 310.438 138.176 311.117 137.965C311.797 137.754 312.406 137.449 312.945 137.051C313.508 136.629 313.965 136.102 314.316 135.469C314.691 134.812 314.902 134.051 314.949 133.184H326.305C325.555 138.41 323.445 142.277 319.977 144.785C316.531 147.27 311.609 148.512 305.211 148.512C302 148.512 299 148.09 296.211 147.246C293.422 146.402 290.996 145.125 288.934 143.414C286.871 141.68 285.254 139.512 284.082 136.91C282.91 134.285 282.324 131.168 282.324 127.559C282.324 124.113 282.91 121.09 284.082 118.488C285.254 115.887 286.895 113.719 289.004 111.984C291.137 110.227 293.645 108.902 296.527 108.012C299.434 107.121 302.621 106.676 306.09 106.676C309.77 106.676 312.875 107.133 315.406 108.047C317.938 108.961 319.977 110.109 321.523 111.492C323.094 112.852 324.207 114.328 324.863 115.922C325.543 117.492 325.883 118.969 325.883 120.352C325.883 121.453 325.719 122.531 325.391 123.586C325.086 124.641 324.57 125.602 323.844 126.469C323.141 127.336 322.238 128.039 321.137 128.578C320.035 129.094 318.688 129.352 317.094 129.352C315.57 129.352 314.328 129.141 313.367 128.719C312.406 128.273 311.656 127.734 311.117 127.102C310.602 126.445 310.227 125.766 309.992 125.062C309.781 124.336 309.676 123.656 309.676 123.023C309.676 121.594 310.016 120.457 310.695 119.613C311.375 118.77 312.16 118.184 313.051 117.855C312.535 117.457 312.008 117.082 311.469 116.73C310.953 116.355 309.992 116.168 308.586 116.168ZM354.043 95.2148V108.258H364.555V121.301H354.043V132.094C354.043 133.641 354.254 134.906 354.676 135.891C355.121 136.875 356.023 137.367 357.383 137.367C358.133 137.367 358.73 137.227 359.176 136.945C359.645 136.641 360.008 136.254 360.266 135.785C360.547 135.293 360.723 134.742 360.793 134.133C360.863 133.5 360.898 132.82 360.898 132.094V126.855H364.941V132.516C364.941 134.789 364.695 136.91 364.203 138.879C363.734 140.848 362.914 142.547 361.742 143.977C360.594 145.406 359.023 146.543 357.031 147.387C355.039 148.23 352.531 148.652 349.508 148.652C346.156 148.652 343.484 148.242 341.492 147.422C339.5 146.602 337.988 145.477 336.957 144.047C335.926 142.617 335.246 140.918 334.918 138.949C334.613 136.98 334.461 134.836 334.461 132.516V121.301H328.941V109.699C330.699 109.699 332.328 109.324 333.828 108.574C335.352 107.801 336.652 106.746 337.73 105.41C338.832 104.051 339.676 102.504 340.262 100.77C340.871 99.0352 341.176 97.1836 341.176 95.2148H354.043Z" fill="#AD3032"/>
</svg>
